<?xml version="1.0" encoding="utf-8"?>
<!-- Generator: Adobe Illustrator 23.0.6, SVG Export Plug-In . SVG Version: 6.00 Build 0)  -->
<svg version="1.1" id="Layer_1" xmlns="http://www.w3.org/2000/svg" xmlns:xlink="http://www.w3.org/1999/xlink" x="0px" y="0px"
	 viewBox="0 0 576 576" style="enable-background:new 0 0 576 576;" xml:space="preserve">
<style type="text/css">
	.st0{fill:#FFFFFF;}
</style>
<g>
	<path class="st0" d="M229.84,259.02c-0.01-0.01-0.01-0.01-0.02-0.02l0,0L229.84,259.02z"/>
	<path class="st0" d="M225.07,260.12c0.41,0.67,0.69,0.86,1.05,1.32l0.93,0.98c0.17,0.32,0.45,0.59,0.58,0.95
		c0.3,0.68,0.63,1.39,0.74,2.18c0.3,1.55,0.27,3.18,0.2,4.59c-0.21,2.84-0.53,4.9-0.53,4.9s1.74-1.47,3.11-4.37
		c0.34-0.72,0.68-1.53,0.9-2.44c0.22-0.9,0.44-1.89,0.39-2.95c0-1.05-0.14-2.21-0.63-3.34c-0.19-0.58-0.59-1.11-0.9-1.66
		c-0.18-0.27-0.42-0.51-0.63-0.77l-0.34-0.38l-0.17-0.19l-0.04-0.04c0.02,0.02,0.05,0.05,0.1,0.1l-0.06-0.07
		c-0.29-0.35-0.87-0.84-0.93-1.06c-0.14-0.25-0.34-0.47-0.47-0.86c-0.31-0.67-0.56-1.44-0.68-2.22c-0.27-1.57-0.24-3.2-0.16-4.62
		c0.21-2.84,0.5-4.91,0.5-4.91s-1.72,1.48-3.1,4.38c-0.69,1.44-1.3,3.25-1.33,5.36c0.02,1.05,0.05,2.2,0.54,3.33
		C224.3,258.88,224.67,259.51,225.07,260.12z"/>
	<path class="st0" d="M235.28,250.07c0.41,0.68,0.69,0.86,1.05,1.32l0.93,0.98c0.17,0.32,0.45,0.59,0.58,0.95
		c0.3,0.68,0.63,1.4,0.74,2.19c0.3,1.55,0.28,3.18,0.2,4.59c-0.21,2.84-0.53,4.91-0.53,4.91s1.73-1.47,3.11-4.37
		c0.34-0.72,0.68-1.53,0.9-2.44c0.22-0.9,0.44-1.89,0.39-2.95c0-1.05-0.15-2.21-0.63-3.34c-0.19-0.58-0.59-1.11-0.9-1.66
		c-0.18-0.27-0.42-0.51-0.63-0.77l-0.33-0.37l-0.17-0.19l-0.05-0.05c0.02,0.02,0.05,0.05,0.12,0.12l-0.01-0.02l-0.06-0.07
		c-0.29-0.34-0.87-0.84-0.93-1.05c-0.14-0.25-0.34-0.46-0.47-0.85c-0.31-0.68-0.56-1.44-0.68-2.22c-0.27-1.57-0.23-3.2-0.16-4.62
		c0.21-2.84,0.5-4.91,0.5-4.91s-1.72,1.48-3.1,4.38c-0.69,1.44-1.3,3.25-1.33,5.36c0.03,1.05,0.05,2.2,0.54,3.33
		C234.52,248.82,234.89,249.46,235.28,250.07z"/>
	<path class="st0" d="M247.9,259.18c0.41,0.67,0.69,0.86,1.05,1.32l0.93,0.98c0.17,0.32,0.45,0.59,0.58,0.95
		c0.3,0.68,0.63,1.4,0.74,2.19c0.29,1.55,0.27,3.18,0.2,4.59c-0.21,2.83-0.53,4.9-0.53,4.9s1.73-1.47,3.11-4.37
		c0.34-0.72,0.68-1.53,0.89-2.44c0.22-0.9,0.44-1.89,0.39-2.95c0-1.05-0.15-2.21-0.63-3.34c-0.19-0.58-0.59-1.11-0.9-1.66
		c-0.18-0.27-0.42-0.51-0.63-0.77l-0.34-0.37l-0.17-0.19l-0.04-0.05c0.02,0.02,0.05,0.05,0.12,0.12l-0.02-0.03l-0.06-0.07
		c-0.29-0.34-0.87-0.84-0.93-1.05c-0.14-0.25-0.34-0.46-0.47-0.85c-0.32-0.68-0.56-1.44-0.68-2.22c-0.27-1.57-0.23-3.2-0.16-4.62
		c0.22-2.84,0.5-4.91,0.5-4.91s-1.71,1.48-3.09,4.38c-0.69,1.44-1.3,3.25-1.33,5.36c0.03,1.05,0.05,2.2,0.54,3.33
		C247.14,257.94,247.52,258.57,247.9,259.18z"/>
	<rect x="226.62" y="278.69" class="st0" width="27.24" height="3.66"/>
	<path class="st0" d="M107.7,278.73h-5.9c-1.06,0-1.65,0.35-2.36,1.89L79.62,323.8v-0.12l-19.94-43.06
		c-0.71-1.53-1.18-1.89-2.48-1.89h-5.9c-1.06,0-1.53,0.83-1.06,1.89l27.73,58.52c0.71,1.18,0.83,1.65,1.42,1.65h0.35
		c0.71,0,0.83-0.59,1.53-1.65l27.61-58.52C109.24,279.68,109,278.73,107.7,278.73z"/>
	<path class="st0" d="M128.11,252.89c-3.42,0-6.14,2.71-6.14,6.13c0,3.42,2.71,6.14,6.14,6.14c3.42,0,6.25-2.71,6.25-6.14
		C134.36,255.61,131.53,252.89,128.11,252.89z"/>
	<path class="st0" d="M130.83,278.73h-5.19c-1.42,0-1.77,0.47-1.77,1.89v56.28c0,1.42,0.35,1.89,1.77,1.89h5.19
		c1.42,0,1.89-0.47,1.89-1.89v-56.28C132.71,279.2,132.36,278.73,130.83,278.73z"/>
	<path class="st0" d="M178.25,304.57c-10.74-1.53-16.64-2.71-16.64-9.2c0-6.49,4.84-10.74,14.75-10.74c7.67,0,12.15,1.77,18.52,5.66
		c1.42,0.94,2.01,0.35,2.6-0.83l1.53-2.83c0.59-1.06,0.83-1.77-0.59-2.6c-8.26-5.07-16.4-6.61-22.53-6.61
		c-13.92,0-22.65,7.2-22.65,18.41c0,12.39,11.21,15.1,22.89,16.64c10.74,1.53,16.64,4.25,16.64,9.44c0,6.02-4.72,10.97-16.16,10.97
		c-7.79,0-14.75-2.95-19.94-6.61c-1.42-1.06-2.01-0.47-2.6,0.71l-1.65,2.95c-0.71,1.3-0.71,1.89,0.35,2.6
		c8.73,5.78,18.05,7.55,24.31,7.55c15.22,0,24.19-7.79,24.19-18.64C201.26,310,189.93,306.22,178.25,304.57z"/>
	<path class="st0" d="M264.38,278.73h-5.31c-1.3,0-1.77,0.47-1.77,1.89v29.73c0,11.8-6.61,21.71-16.87,21.71
		c-9.56,0-16.64-6.84-16.64-20.88v-30.56c0-1.42-0.47-1.89-1.77-1.89h-5.31c-1.3,0-1.77,0.47-1.77,1.89v32.92
		c0,18.88,10.74,26.55,23.36,26.55c11.56,0,17.7-9.08,20.18-13.8l0.94,10.62c0.59,1.42,1.06,1.89,2.01,1.89h2.95
		c1.3,0,1.77-0.47,1.77-1.89v-27.02v-29.26C266.15,279.2,265.68,278.73,264.38,278.73z"/>
	<path class="st0" d="M343.54,256.2h-52.5c-1.41,0-1.89,0.47-1.89,1.89v78.81c0,1.42,0.47,1.89,1.89,1.89h52.5
		c1.42,0,1.77-0.47,1.77-1.89v-4.36c0-1.42-0.35-1.89-1.77-1.89h-45.07v-29.5h42.95c1.42,0,1.89-0.47,1.89-1.89v-4.36
		c0-1.42-0.47-1.89-1.89-1.89h-42.95v-28.67h45.07c1.3,0,1.77-0.47,1.77-1.89v-4.36C345.31,256.67,344.84,256.2,343.54,256.2z"/>
	<path class="st0" d="M385.9,277.43c-9.09,0-18.88,1.77-20.29,2.12c-1.42,0.47-1.77,1.06-1.42,2.36l0.94,3.54
		c0.35,1.42,0.71,2.01,2.24,1.65c4.48-0.83,10.62-1.89,18.17-1.89c12.39,0,16.75,5.43,16.75,20.29c-6.02-2.48-12.86-4.13-19.11-4.13
		c-14.51,0-24.19,6.25-24.19,19.11c0,12.62,9.67,19.59,21,19.59c12.74,0,20.53-6.84,23.71-11.21l0.47,8.02
		c0.35,1.42,0.83,1.89,1.77,1.89h3.42c1.3,0,1.77-0.47,1.77-1.89v-31.15C411.14,286.28,405.72,277.43,385.9,277.43z M402.3,322.03
		c-3.78,5.55-11.45,11.09-19.59,11.09c-9.56,0-14.87-5.31-14.87-12.62c0-8.02,5.9-12.51,17.11-12.51c6.73,0,11.33,1.77,17.34,4.25
		V322.03z"/>
	<path class="st0" d="M465.42,331.24c-0.47-1.65-0.83-1.77-2.36-0.94c-2.95,1.53-4.84,1.77-8.14,1.77
		c-9.44,0-13.57-5.07-13.57-18.88v-27.14h21.36c1.42,0,1.77-0.47,1.77-1.89v-3.54c0-1.53-0.47-1.89-1.77-1.89h-21.36v-12.15
		c0-1.41-0.35-1.89-1.77-1.89h-5.19c-1.42,0-1.77,0.47-1.77,1.89v12.15h-5.78c-1.42,0-1.89,0.35-1.89,1.89v3.54
		c0,1.42,0.47,1.89,1.89,1.89h5.78v27.84c0,16.4,5.78,26.19,21.36,26.19c1.53,0,6.61,0,11.33-2.83c1.06-0.59,1.18-1.06,0.83-2.24
		L465.42,331.24z"/>
	<path class="st0" d="M502.93,304.57c-10.74-1.53-16.64-2.71-16.64-9.2c0-6.49,4.84-10.74,14.75-10.74c7.67,0,12.15,1.77,18.52,5.66
		c1.41,0.94,2.01,0.35,2.59-0.83l1.53-2.83c0.59-1.06,0.83-1.77-0.59-2.6c-8.26-5.07-16.4-6.61-22.54-6.61
		c-13.92,0-22.65,7.2-22.65,18.41c0,12.39,11.21,15.1,22.89,16.64c10.74,1.53,16.64,4.25,16.64,9.44c0,6.02-4.72,10.97-16.17,10.97
		c-7.79,0-14.75-2.95-19.94-6.61c-1.42-1.06-2.01-0.47-2.6,0.71l-1.65,2.95c-0.71,1.3-0.71,1.89,0.35,2.6
		c8.73,5.78,18.05,7.55,24.31,7.55c15.22,0,24.19-7.79,24.19-18.64C525.94,310,514.61,306.22,502.93,304.57z"/>
</g>
</svg>
